<svg width="25" height="25" viewBox="0 0 25 25" fill="none" xmlns="http://www.w3.org/2000/svg">
<path d="M8.3457 19.7631C8.3457 19.8607 8.2334 19.9388 8.0918 19.9388C7.93066 19.9535 7.81836 19.8754 7.81836 19.7631C7.81836 19.6654 7.93066 19.5873 8.07227 19.5873C8.21875 19.5726 8.3457 19.6508 8.3457 19.7631ZM6.82715 19.5433C6.79297 19.641 6.89063 19.7533 7.03711 19.7826C7.16406 19.8314 7.31055 19.7826 7.33984 19.6849C7.36914 19.5873 7.27637 19.475 7.12988 19.431C7.00293 19.3969 6.86133 19.4457 6.82715 19.5433ZM8.98535 19.4603C8.84375 19.4945 8.74609 19.5873 8.76074 19.6996C8.77539 19.7972 8.90234 19.8607 9.04883 19.8265C9.19043 19.7924 9.28809 19.6996 9.27344 19.6019C9.25879 19.5092 9.12695 19.4457 8.98535 19.4603ZM12.1982 0.74939C5.42578 0.74939 0.245117 5.89099 0.245117 12.6635C0.245117 18.0785 3.65332 22.7123 8.52148 24.3431C9.14648 24.4554 9.36621 24.0697 9.36621 23.7523C9.36621 23.4496 9.35156 21.7797 9.35156 20.7543C9.35156 20.7543 5.93359 21.4867 5.21582 19.2992C5.21582 19.2992 4.65918 17.8783 3.8584 17.5121C3.8584 17.5121 2.74023 16.7455 3.93652 16.7601C3.93652 16.7601 5.15234 16.8578 5.82129 18.0199C6.89062 19.9047 8.68262 19.3627 9.38086 19.0404C9.49316 18.2592 9.81055 17.7172 10.1621 17.3949C7.43262 17.0922 4.67871 16.6967 4.67871 11.9994C4.67871 10.6566 5.0498 9.98279 5.83105 9.12341C5.7041 8.80603 5.28906 7.49744 5.95801 5.80798C6.97852 5.4906 9.32715 7.12634 9.32715 7.12634C10.3037 6.85291 11.3535 6.7113 12.3936 6.7113C13.4336 6.7113 14.4834 6.85291 15.46 7.12634C15.46 7.12634 17.8086 5.48572 18.8291 5.80798C19.498 7.50232 19.083 8.80603 18.9561 9.12341C19.7373 9.98767 20.2158 10.6615 20.2158 11.9994C20.2158 16.7113 17.3398 17.0873 14.6104 17.3949C15.0596 17.7806 15.4404 18.5131 15.4404 19.6605C15.4404 21.306 15.4258 23.3422 15.4258 23.7426C15.4258 24.0599 15.6504 24.4457 16.2705 24.3334C21.1533 22.7123 24.4639 18.0785 24.4639 12.6635C24.4639 5.89099 18.9707 0.74939 12.1982 0.74939ZM4.99121 17.5902C4.92773 17.639 4.94238 17.7513 5.02539 17.8441C5.10352 17.9222 5.21582 17.9564 5.2793 17.8929C5.34277 17.8441 5.32813 17.7318 5.24512 17.639C5.16699 17.5609 5.05469 17.5267 4.99121 17.5902ZM4.46387 17.1947C4.42969 17.2582 4.47852 17.3363 4.57617 17.3851C4.6543 17.434 4.75195 17.4193 4.78613 17.351C4.82031 17.2875 4.77148 17.2094 4.67383 17.1605C4.57617 17.1312 4.49805 17.1459 4.46387 17.1947ZM6.0459 18.933C5.96777 18.9965 5.99707 19.1429 6.10937 19.2357C6.22168 19.348 6.36328 19.3627 6.42676 19.2845C6.49023 19.2211 6.46094 19.0746 6.36328 18.9818C6.25586 18.8695 6.10938 18.8549 6.0459 18.933ZM5.48926 18.2152C5.41113 18.264 5.41113 18.391 5.48926 18.5033C5.56738 18.6156 5.69922 18.6644 5.7627 18.6156C5.84082 18.5521 5.84082 18.4252 5.7627 18.3129C5.69434 18.2006 5.56738 18.1517 5.48926 18.2152Z" fill="white"/>
</svg>
